<svg width="1050" height="211" viewBox="0 0 1050 211" fill="none" xmlns="http://www.w3.org/2000/svg">
<path d="M93.4629 97.6004L50.3372 97.8957C28.4304 97.3052 3.28595 85.2292 3 51.4007V51.4365C3.28595 15.5783 25.9496 3.42816 51.1876 3L93.4629 3.02938C94.4951 3.02938 95.3333 3.88638 95.3333 4.94515V95.6861C95.3333 96.7434 94.4951 97.6004 93.4629 97.6004Z" fill="#007bff" stroke="#007bff" stroke-width="4.9452" stroke-linecap="round"/>
<path d="M201.292 97.6013H112.699C111.667 97.6013 110.83 96.7443 110.83 95.687V4.94604C110.83 3.88727 111.667 3.03027 112.699 3.03027H201.292C202.326 3.03027 203.162 3.88727 203.162 4.94604V95.687C203.162 96.7443 202.326 97.6013 201.292 97.6013Z" fill="#007bff" stroke="#007bff" stroke-width="4.9452" stroke-linecap="round"/>
<path d="M220.529 3.29609L263.655 3.00086C285.562 3.59131 310.706 15.6673 310.992 49.4958V49.46C310.706 85.3183 288.043 97.4683 262.805 97.8965L220.529 97.8671C219.497 97.8671 218.659 97.0101 218.659 95.9513V5.21037C218.659 4.15309 219.497 3.29609 220.529 3.29609Z" fill="#007bff" stroke="#007bff" stroke-width="4.9452" stroke-linecap="round"/>
<path d="M202.795 114.532L203.081 159.057C202.509 181.675 190.813 207.635 158.048 207.931H158.082C123.351 207.635 111.583 184.236 111.169 158.179L111.197 114.532C111.197 113.466 112.027 112.601 113.053 112.601H200.941C201.965 112.601 202.795 113.466 202.795 114.532Z" fill="#007bff" stroke="#007bff" stroke-width="4.9452" stroke-linecap="round"/>
<path d="M378.2 79.9C377.4 78.9667 376.333 78.0667 375 77.2C373.667 76.3333 372.167 75.5667 370.5 74.9C368.833 74.1667 367 73.6 365 73.2C363.067 72.7333 361.033 72.5 358.9 72.5C353.433 72.5 349.4 73.5333 346.8 75.6C344.2 77.6667 342.9 80.5 342.9 84.1C342.9 86.6333 343.567 88.6333 344.9 90.1C346.233 91.5667 348.267 92.7667 351 93.7C353.8 94.6333 357.333 95.6 361.6 96.6C366.533 97.6667 370.8 98.9667 374.4 100.5C378 102.033 380.767 104.1 382.7 106.7C384.633 109.233 385.6 112.633 385.6 116.9C385.6 120.3 384.933 123.267 383.6 125.8C382.333 128.267 380.533 130.333 378.2 132C375.867 133.6 373.133 134.8 370 135.6C366.867 136.333 363.467 136.7 359.8 136.7C356.2 136.7 352.667 136.333 349.2 135.6C345.8 134.8 342.567 133.667 339.5 132.2C336.433 130.733 333.567 128.9 330.9 126.7L335.2 119.1C336.267 120.233 337.633 121.367 339.3 122.5C341.033 123.567 342.967 124.567 345.1 125.5C347.3 126.433 349.667 127.2 352.2 127.8C354.733 128.333 357.333 128.6 360 128.6C365.067 128.6 369 127.7 371.8 125.9C374.6 124.033 376 121.333 376 117.8C376 115.133 375.2 113 373.6 111.4C372.067 109.8 369.767 108.467 366.7 107.4C363.633 106.333 359.9 105.267 355.5 104.2C350.7 103 346.667 101.7 343.4 100.3C340.133 98.8333 337.667 96.9333 336 94.6C334.4 92.2667 333.6 89.2333 333.6 85.5C333.6 80.9667 334.7 77.1333 336.9 74C339.1 70.8667 342.133 68.5 346 66.9C349.867 65.3 354.233 64.5 359.1 64.5C362.3 64.5 365.267 64.8333 368 65.5C370.8 66.1667 373.4 67.1 375.8 68.3C378.2 69.5 380.4 70.9333 382.4 72.6L378.2 79.9ZM392.838 100C392.838 95.6667 393.571 91.4333 395.038 87.3C396.571 83.1 398.771 79.3 401.638 75.9C404.571 72.4333 408.138 69.7 412.338 67.7C416.538 65.6333 421.304 64.6 426.638 64.6C432.971 64.6 438.404 66.0667 442.938 69C447.471 71.8667 450.838 75.5667 453.038 80.1L445.938 84.7C444.538 81.7 442.738 79.3333 440.538 77.6C438.404 75.8 436.071 74.5333 433.538 73.8C431.071 73.0667 428.638 72.7 426.238 72.7C422.304 72.7 418.804 73.5 415.738 75.1C412.738 76.7 410.204 78.8333 408.138 81.5C406.071 84.1667 404.504 87.1667 403.438 90.5C402.438 93.7667 401.938 97.0667 401.938 100.4C401.938 104.067 402.538 107.6 403.738 111C405.004 114.4 406.738 117.4 408.938 120C411.138 122.6 413.738 124.667 416.738 126.2C419.738 127.733 423.004 128.5 426.538 128.5C429.004 128.5 431.538 128.067 434.138 127.2C436.738 126.333 439.171 125 441.438 123.2C443.704 121.333 445.504 118.933 446.838 116L454.338 120.1C452.871 123.633 450.604 126.633 447.538 129.1C444.471 131.567 441.038 133.433 437.238 134.7C433.504 135.967 429.804 136.6 426.138 136.6C421.271 136.6 416.804 135.567 412.738 133.5C408.671 131.367 405.138 128.567 402.137 125.1C399.204 121.567 396.904 117.633 395.238 113.3C393.638 108.9 392.838 104.467 392.838 100ZM465.602 136V65H474.602V136H465.602ZM539.778 128V136H491.578V65H538.878V73H500.578V96H533.878V103.5H500.578V128H539.778ZM561.125 81.6V136H552.125V65H559.725L603.125 120.5V65.1H612.125V136H603.925L561.125 81.6ZM624.478 100C624.478 95.6667 625.211 91.4333 626.678 87.3C628.211 83.1 630.411 79.3 633.278 75.9C636.211 72.4333 639.778 69.7 643.978 67.7C648.178 65.6333 652.945 64.6 658.278 64.6C664.611 64.6 670.045 66.0667 674.578 69C679.111 71.8667 682.478 75.5667 684.678 80.1L677.578 84.7C676.178 81.7 674.378 79.3333 672.178 77.6C670.045 75.8 667.711 74.5333 665.178 73.8C662.711 73.0667 660.278 72.7 657.878 72.7C653.945 72.7 650.445 73.5 647.378 75.1C644.378 76.7 641.845 78.8333 639.778 81.5C637.711 84.1667 636.145 87.1667 635.078 90.5C634.078 93.7667 633.578 97.0667 633.578 100.4C633.578 104.067 634.178 107.6 635.378 111C636.645 114.4 638.378 117.4 640.578 120C642.778 122.6 645.378 124.667 648.378 126.2C651.378 127.733 654.645 128.5 658.178 128.5C660.645 128.5 663.178 128.067 665.778 127.2C668.378 126.333 670.811 125 673.078 123.2C675.345 121.333 677.145 118.933 678.478 116L685.978 120.1C684.511 123.633 682.245 126.633 679.178 129.1C676.111 131.567 672.678 133.433 668.878 134.7C665.145 135.967 661.445 136.6 657.778 136.6C652.911 136.6 648.445 135.567 644.378 133.5C640.311 131.367 636.778 128.567 633.778 125.1C630.845 121.567 628.545 117.633 626.878 113.3C625.278 108.9 624.478 104.467 624.478 100ZM745.442 128V136H697.242V65H744.542V73H706.242V96H739.542V103.5H706.242V128H745.442ZM755.689 112.7V104.7H785.189V112.7H755.689ZM829.374 136.5C823.708 136.5 818.941 135.533 815.074 133.6C811.208 131.6 808.108 128.933 805.774 125.6C803.441 122.2 801.741 118.367 800.674 114.1C799.608 109.833 799.074 105.433 799.074 100.9V65H808.074V100.9C808.074 104.367 808.408 107.767 809.074 111.1C809.808 114.367 810.974 117.3 812.574 119.9C814.174 122.5 816.341 124.567 819.074 126.1C821.808 127.633 825.208 128.4 829.274 128.4C833.408 128.4 836.841 127.633 839.574 126.1C842.308 124.5 844.474 122.4 846.074 119.8C847.674 117.133 848.808 114.167 849.474 110.9C850.208 107.633 850.574 104.3 850.574 100.9V65H859.574V100.9C859.574 105.7 859.008 110.267 857.874 114.6C856.808 118.867 855.074 122.633 852.674 125.9C850.274 129.167 847.141 131.767 843.274 133.7C839.474 135.567 834.841 136.5 829.374 136.5ZM926.763 73H902.263V136H893.263V73H868.763V65H926.763V73ZM951.85 65H959.45L988.45 136H978.85L970.45 115.2H940.65L932.35 136H922.75L951.85 65ZM968.45 108.2L955.65 75.4L942.45 108.2H968.45ZM1038.65 79.9C1037.85 78.9667 1036.78 78.0667 1035.45 77.2C1034.12 76.3333 1032.62 75.5667 1030.95 74.9C1029.28 74.1667 1027.45 73.6 1025.45 73.2C1023.52 72.7333 1021.48 72.5 1019.35 72.5C1013.88 72.5 1009.85 73.5333 1007.25 75.6C1004.65 77.6667 1003.35 80.5 1003.35 84.1C1003.35 86.6333 1004.02 88.6333 1005.35 90.1C1006.68 91.5667 1008.72 92.7667 1011.45 93.7C1014.25 94.6333 1017.78 95.6 1022.05 96.6C1026.98 97.6667 1031.25 98.9667 1034.85 100.5C1038.45 102.033 1041.22 104.1 1043.15 106.7C1045.08 109.233 1046.05 112.633 1046.05 116.9C1046.05 120.3 1045.38 123.267 1044.05 125.8C1042.78 128.267 1040.98 130.333 1038.65 132C1036.32 133.6 1033.58 134.8 1030.45 135.6C1027.32 136.333 1023.92 136.7 1020.25 136.7C1016.65 136.7 1013.12 136.333 1009.65 135.6C1006.25 134.8 1003.02 133.667 999.949 132.2C996.883 130.733 994.016 128.9 991.349 126.7L995.649 119.1C996.716 120.233 998.083 121.367 999.749 122.5C1001.48 123.567 1003.42 124.567 1005.55 125.5C1007.75 126.433 1010.12 127.2 1012.65 127.8C1015.18 128.333 1017.78 128.6 1020.45 128.6C1025.52 128.6 1029.45 127.7 1032.25 125.9C1035.05 124.033 1036.45 121.333 1036.45 117.8C1036.45 115.133 1035.65 113 1034.05 111.4C1032.52 109.8 1030.22 108.467 1027.15 107.4C1024.08 106.333 1020.35 105.267 1015.95 104.2C1011.15 103 1007.12 101.7 1003.85 100.3C1000.58 98.8333 998.116 96.9333 996.449 94.6C994.849 92.2667 994.049 89.2333 994.049 85.5C994.049 80.9667 995.149 77.1333 997.349 74C999.549 70.8667 1002.58 68.5 1006.45 66.9C1010.32 65.3 1014.68 64.5 1019.55 64.5C1022.75 64.5 1025.72 64.8333 1028.45 65.5C1031.25 66.1667 1033.85 67.1 1036.25 68.3C1038.65 69.5 1040.85 70.9333 1042.85 72.6L1038.65 79.9Z" fill="#848280"/>
</svg>
