<svg height="120" viewBox="0 0 314 211" fill="none" xmlns="http://www.w3.org/2000/svg">
<path d="M93.4629 97.6004L50.3372 97.8957C28.4304 97.3052 3.28595 85.2292 3 51.4007V51.4365C3.28595 15.5783 25.9496 3.42816 51.1876 3L93.4629 3.02938C94.4951 3.02938 95.3333 3.88638 95.3333 4.94515V95.6861C95.3333 96.7434 94.4951 97.6004 93.4629 97.6004Z" fill="#007bff" stroke="#007bff" stroke-width="4.9452" stroke-linecap="round"/>
<path d="M201.292 97.6013H112.699C111.667 97.6013 110.83 96.7443 110.83 95.687V4.94604C110.83 3.88727 111.667 3.03027 112.699 3.03027H201.292C202.326 3.03027 203.162 3.88727 203.162 4.94604V95.687C203.162 96.7443 202.326 97.6013 201.292 97.6013Z" fill="#007bff" stroke="#007bff" stroke-width="4.9452" stroke-linecap="round"/>
<path d="M220.529 3.29609L263.655 3.00086C285.562 3.59131 310.706 15.6673 310.992 49.4958V49.46C310.706 85.3183 288.043 97.4683 262.805 97.8965L220.529 97.8671C219.497 97.8671 218.659 97.0101 218.659 95.9513V5.21037C218.659 4.15309 219.497 3.29609 220.529 3.29609Z" fill="#007bff" stroke="#007bff" stroke-width="4.9452" stroke-linecap="round"/>
<path d="M202.795 114.532L203.081 159.057C202.509 181.675 190.813 207.635 158.048 207.931H158.082C123.351 207.635 111.583 184.236 111.169 158.179L111.197 114.532C111.197 113.466 112.027 112.601 113.053 112.601H200.941C201.965 112.601 202.795 113.466 202.795 114.532Z" fill="#007bff" stroke="#007bff" stroke-width="4.9452" stroke-linecap="round"/>
</svg>
